<svg version="1.1" id="Layer_1" xmlns="http://www.w3.org/2000/svg" xmlns:xlink="http://www.w3.org/1999/xlink" x="0px" y="0px"
	 width="100%" viewBox="0 0 724 703" enable-background="new 0 0 724 703" xml:space="preserve">
<path fill="#000" opacity="1.000000" stroke="none" 
	d="
M31.000000,1.000000 
	C262.287292,1.000000 493.574585,1.000000 724.930908,1.000000 
	C724.930908,235.240646 724.930908,469.481323 724.930908,704.000000 
	C493.972046,704.000000 262.943970,704.000000 31.457970,703.531372 
	C30.998529,633.045410 30.997028,563.028137 31.464451,493.007202 
	C223.158020,493.002319 414.382660,493.001160 605.607300,492.999939 
	C607.106445,492.999908 608.618958,492.870270 610.101990,493.024506 
	C613.254395,493.352417 614.136230,491.877747 614.044983,488.934235 
	C613.879822,483.609070 613.859741,478.270111 614.050781,472.946686 
	C614.161804,469.851379 612.985046,468.903351 609.983887,468.950897 
	C600.991272,469.093414 591.994873,469.000824 583.043640,468.612671 
	C587.220825,451.173187 591.569580,434.169800 595.443604,417.058929 
	C603.844055,379.955200 612.468201,342.891052 620.022644,305.612488 
	C622.926697,291.282043 622.273071,276.428802 616.627625,262.466980 
	C611.422241,249.593338 602.552979,239.126038 587.435913,241.055542 
	C569.593262,241.074753 552.207947,241.118652 534.371216,241.106400 
	C527.328186,240.935608 520.736572,240.820969 514.263916,240.495483 
	C514.597046,239.858566 514.811157,239.432495 515.299316,238.975800 
	C515.744446,238.636276 515.915588,238.327408 516.050659,238.015594 
	C516.014648,238.012634 516.026245,238.083969 516.350464,237.987381 
	C525.238403,227.899338 533.802185,217.907883 542.644287,207.717773 
	C543.393066,206.284836 543.957825,205.077515 544.319885,203.812195 
	C550.150879,183.438858 552.025024,162.737076 550.179565,141.591064 
	C549.301880,131.534149 544.618896,124.745102 535.529480,120.889076 
	C531.876892,119.339523 528.112549,117.849403 524.250610,117.042206 
	C517.394470,115.609169 510.425110,114.717812 502.755127,113.479034 
	C517.067017,102.147636 533.022278,102.006836 550.340759,103.694458 
	C538.234436,94.201233 525.783020,88.821259 511.056244,89.690559 
	C507.192444,89.918640 504.526154,91.524307 502.995422,95.199768 
	C501.481628,98.834747 499.671204,102.346214 497.759979,106.401855 
	C496.603149,104.193588 495.726624,102.479019 494.813629,100.784111 
	C487.521393,87.247452 479.379028,74.329369 467.627441,64.109062 
	C455.694916,53.731377 442.374298,49.461563 426.539185,53.776669 
	C395.857971,62.137379 367.559235,75.829033 339.712738,90.841743 
	C329.245392,96.484932 323.476074,104.488495 321.356323,116.109283 
	C319.679443,121.302261 318.378754,126.267868 316.679932,131.093307 
	C314.768524,136.522537 314.592133,141.762451 317.215271,147.338470 
	C324.314789,161.468536 331.402435,175.238419 338.308441,189.364182 
	C333.772400,192.581146 334.634033,201.495224 339.422943,204.609879 
	C340.724030,205.456100 342.155243,206.803619 342.563812,208.202316 
	C344.582794,215.113907 348.258484,220.790863 354.024902,225.557297 
	C353.745697,229.462021 353.291290,232.913132 353.226227,236.371552 
	C353.099121,243.131912 349.577759,250.231918 354.829071,256.510864 
	C358.104675,260.427521 361.127472,264.767761 365.095581,267.845459 
	C371.731079,272.991974 379.032013,277.280579 385.775055,282.203003 
	C384.827820,285.354858 384.080139,288.218536 383.504242,291.116302 
	C382.034302,298.512817 380.641022,305.924561 378.990417,313.578003 
	C372.299744,318.157471 365.793976,322.428589 359.386444,326.842224 
	C355.184570,329.736511 351.124634,332.836853 347.112305,335.316071 
	C347.249298,307.508362 347.281250,280.229431 347.296112,252.950485 
	C347.299347,246.962997 347.441284,240.966034 347.158539,234.990524 
	C346.849548,228.460114 341.782867,223.359818 335.336914,223.033966 
	C331.207062,222.825241 327.049164,223.171646 322.444153,223.212494 
	C319.820770,223.061920 317.657104,222.885681 315.493408,222.886017 
	C222.679764,222.900192 129.866119,222.930054 37.028152,222.492615 
	C37.335312,214.279419 37.539513,206.523651 38.024414,198.785477 
	C39.077755,181.976059 44.161167,166.165298 51.482758,151.223007 
	C62.049522,129.657806 77.538101,111.758095 96.016464,96.624184 
	C114.165230,81.760223 134.193893,69.685150 155.243729,59.336143 
	C160.021713,56.987076 164.887314,54.816235 170.672028,52.115410 
	C123.332130,52.115410 77.188622,52.115410 31.031418,51.639664 
	C31.011816,34.442608 31.005909,17.721304 31.000000,1.000000 
M567.997986,72.496773 
	C586.998962,91.949203 604.360840,112.796921 620.794556,135.448227 
	C620.794556,107.108315 620.794556,79.746971 620.794556,52.390285 
	C595.830688,52.390285 571.074158,52.390285 545.907654,52.390285 
	C553.384521,59.180904 560.440308,65.589111 567.997986,72.496773 
z"/>
<path fill="#000000" opacity="1.000000" stroke="none" 
	d="
M31.045115,52.115410 
	C77.188622,52.115410 123.332130,52.115410 170.672028,52.115410 
	C164.887314,54.816235 160.021713,56.987076 155.243729,59.336143 
	C134.193893,69.685150 114.165230,81.760223 96.016464,96.624184 
	C77.538101,111.758095 62.049522,129.657806 51.482758,151.223007 
	C44.161167,166.165298 39.077755,181.976059 38.024414,198.785477 
	C37.539513,206.523651 37.335312,214.279419 36.648972,222.511139 
	C29.081028,225.027359 26.003845,228.910843 26.003176,236.065094 
	C25.997890,292.491272 25.994699,348.917480 26.006710,405.343658 
	C26.008366,413.121094 31.063969,418.654999 38.755684,418.941345 
	C44.233459,419.145264 49.729870,418.848724 55.664448,418.828613 
	C66.061913,418.936371 76.012886,418.990997 85.984238,419.434082 
	C90.321037,431.210846 94.637451,442.599182 98.662552,453.998383 
	C98.183434,454.059296 97.995636,454.109344 97.390060,454.147583 
	C94.749458,454.172089 92.526649,454.208313 89.822121,454.164490 
	C80.645157,454.084412 71.949921,454.084412 62.959465,454.084412 
	C62.959465,459.572388 62.959465,464.206207 62.498497,468.913513 
	C41.691689,468.991302 21.345844,468.995667 1.000000,469.000000 
	C1.000000,365.312439 1.000000,261.624878 1.468657,157.468658 
	C11.538031,157.000000 21.138748,157.000000 31.045115,157.000000 
	C31.045115,121.689804 31.045115,86.902603 31.045115,52.115410 
z"/>
<path fill="#ECECF5" opacity="1.000000" stroke="none" 
	d="
M1.000000,469.468628 
	C21.345844,468.995667 41.691689,468.991302 62.964577,468.985229 
	C94.142838,468.993073 124.394073,469.025055 154.645279,469.005371 
	C180.073196,468.988831 205.501083,468.912109 231.399231,468.918945 
	C240.594299,468.947784 249.319107,468.919739 258.505005,468.963104 
	C286.648071,468.978485 314.330017,468.922455 342.474792,468.941833 
	C377.622498,468.966217 412.307404,468.915192 447.453796,468.953949 
	C454.885834,468.961273 461.856293,468.878784 469.298187,468.887482 
	C475.792786,468.934540 481.815979,468.890411 488.315521,468.896057 
	C500.184967,468.956543 511.578094,468.967316 523.441589,468.985474 
	C543.607971,468.995239 563.304016,468.997620 583.000000,469.000000 
	C591.994873,469.000824 600.991272,469.093414 609.983887,468.950897 
	C612.985046,468.903351 614.161804,469.851379 614.050781,472.946686 
	C613.859741,478.270111 613.879822,483.609070 614.044983,488.934235 
	C614.136230,491.877747 613.254395,493.352417 610.101990,493.024506 
	C608.618958,492.870270 607.106445,492.999908 605.607300,492.999939 
	C414.382660,493.001160 223.158020,493.002319 30.996313,493.003052 
	C20.372833,493.001740 10.686417,493.000885 1.000000,493.000000 
	C1.000000,485.312408 1.000000,477.624847 1.000000,469.468628 
z"/>
<path fill="#FFFFFF" opacity="1.000000" stroke="none" 
	d="
M1.000000,493.468658 
	C10.686417,493.000885 20.372833,493.001740 30.527390,493.006775 
	C30.997028,563.028137 30.998529,633.045410 31.000015,703.531372 
	C21.018183,704.000000 11.036367,704.000000 1.000000,704.000000 
	C1.000000,633.979126 1.000000,563.958191 1.000000,493.468658 
z"/>
<path fill="#000" opacity="1.000000" stroke="none" 
	d="
M31.031418,51.639664 
	C31.045115,86.902603 31.045115,121.689804 31.045115,157.000000 
	C21.138748,157.000000 11.538031,157.000000 1.468657,157.000000 
	C1.000000,105.122589 1.000000,53.245178 1.000000,1.000000 
	C10.684459,1.000000 20.373571,1.000000 30.531342,1.000000 
	C31.005909,17.721304 31.011816,34.442608 31.031418,51.639664 
z"/>
<path fill="#264067" opacity="1.000000" stroke="none" 
	d="
M55.217964,418.775543 
	C49.729870,418.848724 44.233459,419.145264 38.755684,418.941345 
	C31.063969,418.654999 26.008366,413.121094 26.006710,405.343658 
	C25.994699,348.917480 25.997890,292.491272 26.003176,236.065094 
	C26.003845,228.910843 29.081028,225.027359 36.673294,222.976562 
	C129.866119,222.930054 222.679764,222.900192 315.493408,222.886017 
	C317.657104,222.885681 319.820770,223.061920 322.473694,223.549530 
	C328.811462,228.620193 329.208466,234.952820 329.184570,241.875626 
	C329.007904,293.039886 329.069977,344.205048 329.108856,395.369904 
	C329.114899,403.296539 330.349335,411.490814 322.980194,417.332153 
	C322.892822,417.401398 322.949829,417.652710 322.719299,417.933075 
	C322.499176,418.047089 322.070343,418.295776 321.611511,418.175385 
	C298.500122,418.110138 275.847565,418.165283 252.802338,418.154938 
	C252.155563,418.163940 251.901474,418.238464 251.202896,418.355957 
	C225.212173,418.457703 199.665955,418.516479 174.094910,418.064850 
	C174.066177,405.055939 174.062241,392.557434 174.522629,380.031555 
	C192.684799,379.620361 210.382645,379.236542 228.529846,378.881439 
	C230.478607,378.917206 231.978058,378.932037 233.477463,378.929932 
	C243.443069,378.916077 247.055222,375.343811 247.056259,365.484711 
	C247.059036,338.827454 247.066162,312.170166 247.049652,285.512909 
	C247.045395,278.615112 243.023209,274.373749 236.079422,274.104553 
	C232.088348,273.949890 228.084686,274.119415 223.614777,274.095886 
	C173.568237,274.372559 123.993431,274.669983 74.419243,275.049561 
	C67.223473,275.104675 63.016628,279.521942 63.010468,286.648712 
	C62.987865,312.789764 63.184734,338.932648 62.924488,365.071106 
	C62.793232,378.254517 68.052299,379.477783 77.419136,379.815582 
	C91.883896,380.337250 106.383423,379.895020 120.908646,380.337341 
	C120.965561,391.770630 121.033966,402.728668 120.937637,413.685211 
	C120.924484,415.180298 120.089005,416.668152 119.200531,418.267365 
	C107.996490,418.355225 97.226173,418.335052 85.960419,418.241058 
	C75.382645,418.369995 65.300301,418.572754 55.217964,418.775543 
z"/>
<path fill="#3A2C29" opacity="1.000000" stroke="none" 
	d="
M321.556793,115.820053 
	C323.476074,104.488495 329.245392,96.484932 339.712738,90.841743 
	C367.559235,75.829033 395.857971,62.137379 426.539185,53.776669 
	C442.374298,49.461563 455.694916,53.731377 467.627441,64.109062 
	C479.379028,74.329369 487.521393,87.247452 494.813629,100.784111 
	C495.726624,102.479019 496.603149,104.193588 497.759979,106.401855 
	C499.671204,102.346214 501.481628,98.834747 502.995422,95.199768 
	C504.526154,91.524307 507.192444,89.918640 511.056244,89.690559 
	C525.783020,88.821259 538.234436,94.201233 550.340759,103.694458 
	C533.022278,102.006836 517.067017,102.147636 502.755127,113.479034 
	C510.425110,114.717812 517.394470,115.609169 524.250610,117.042206 
	C528.112549,117.849403 531.876892,119.339523 535.529480,120.889076 
	C544.618896,124.745102 549.301880,131.534149 550.179565,141.591064 
	C552.025024,162.737076 550.150879,183.438858 544.319885,203.812195 
	C543.957825,205.077515 543.393066,206.284836 542.257385,207.757080 
	C535.762451,210.823212 529.932739,213.651398 523.775208,216.638596 
	C522.946045,214.205627 522.497437,212.971313 522.103577,211.719757 
	C520.315979,206.040070 519.041748,200.133484 516.633118,194.732040 
	C513.959900,188.737320 511.242767,182.298431 504.056305,180.073608 
	C502.309631,187.372269 500.667603,194.233749 498.953674,201.455048 
	C497.469208,205.534302 496.056610,209.253738 494.410583,213.194016 
	C492.848541,215.950546 491.519928,218.486237 489.999420,221.312988 
	C486.874054,225.772049 483.940643,229.940048 481.005920,233.690521 
	C481.257355,231.174042 481.510071,229.075104 482.090851,226.779770 
	C487.245819,209.943207 493.245239,193.442825 487.175507,175.716187 
	C486.703430,174.337463 488.140961,172.089249 489.087158,170.477798 
	C493.178711,163.509644 498.094208,156.937637 501.434814,149.637955 
	C505.785126,140.132111 506.614624,130.023468 502.199524,119.935127 
	C503.448669,131.409195 498.992401,140.478867 490.642090,147.823471 
	C486.200287,151.730270 481.508484,155.352829 476.500488,159.038605 
	C459.069580,161.448700 442.224457,160.495148 425.562897,156.449707 
	C409.244781,152.487640 392.996979,148.086670 375.637146,150.586563 
	C371.417908,150.565933 367.470978,150.643707 363.566864,151.093292 
	C350.201385,152.632370 334.688568,174.061737 344.660828,187.140381 
	C342.393280,187.855377 340.441681,188.431839 338.490082,189.008301 
	C331.402435,175.238419 324.314789,161.468536 317.539124,147.275833 
	C325.596863,135.990173 336.179413,128.745224 348.175568,123.441284 
	C361.226257,117.671074 374.487152,116.058746 388.195007,121.566475 
	C397.583923,125.338898 407.059814,128.993088 416.723633,131.961700 
	C434.090027,137.296402 451.798370,139.975998 469.955414,136.310226 
	C466.850708,135.912994 463.691010,136.235077 460.616058,135.860809 
	C440.313232,133.389755 422.408630,125.007149 406.322449,112.754776 
	C397.464325,106.007790 387.883850,101.560081 376.782684,101.093651 
	C358.792816,100.337776 341.865692,104.331512 326.232544,113.444771 
	C324.724792,114.323715 323.117737,115.032356 321.556793,115.820053 
z"/>
<path fill="#222C57" opacity="1.000000" stroke="none" 
	d="
M347.001160,335.844849 
	C351.124634,332.836853 355.184570,329.736511 359.386444,326.842224 
	C365.793976,322.428589 372.299744,318.157471 379.342468,313.506348 
	C392.973175,306.189728 406.211365,300.667572 421.252472,308.308441 
	C421.758759,309.800659 422.083923,310.976074 422.266724,312.497986 
	C421.106659,316.797760 419.470428,320.714844 419.236420,324.714020 
	C418.975983,329.163300 421.422485,331.949158 426.489868,332.257263 
	C434.245270,332.728851 441.722565,331.420654 447.625519,326.633087 
	C453.960022,321.495453 459.251740,315.072052 465.404480,309.191437 
	C471.877350,307.762238 477.944214,306.351349 484.417236,304.946045 
	C494.324493,302.331635 503.705109,302.675201 513.110840,306.392792 
	C519.789429,310.638947 523.460693,316.582794 524.910217,323.907898 
	C526.855347,333.737457 526.321228,343.581757 522.522034,352.793732 
	C513.093689,375.654358 502.833618,398.176758 493.674042,421.140717 
	C490.549286,428.974854 486.419342,432.751282 477.612823,431.201843 
	C470.415741,429.796295 463.652100,428.469666 456.564972,426.994995 
	C448.165466,422.240509 440.089478,417.634033 431.858521,412.713867 
	C429.178528,410.348083 428.967896,408.034637 430.064240,404.950287 
	C433.840424,394.326782 437.299591,383.590729 440.905975,372.906494 
	C441.916168,369.913666 443.017395,366.951569 444.076843,363.975372 
	C436.948608,376.044983 430.755890,388.461700 424.985657,401.071747 
	C423.793610,403.676849 424.330994,407.031830 423.762634,409.981750 
	C423.487488,411.409882 422.857147,413.365967 421.775787,413.949738 
	C411.423523,419.538605 400.907227,424.822601 390.515747,430.340454 
	C387.551636,431.914429 384.840729,433.965240 381.664795,435.955505 
	C378.325226,437.047882 375.378326,438.169464 372.335388,438.879791 
	C364.507416,440.707062 356.636932,442.352112 348.872559,443.697083 
	C350.229584,439.537903 351.497559,435.751678 353.013885,431.704163 
	C358.606567,416.417480 363.970337,401.398895 369.262390,386.355133 
	C369.743835,384.986542 369.764923,383.456024 370.134827,381.667358 
	C373.270325,374.359497 376.304901,367.399445 379.260254,360.405853 
	C381.561066,354.961304 383.763184,349.475037 386.157959,343.954163 
	C386.202148,343.931183 386.097565,343.961304 385.688477,344.135315 
	C381.210388,349.613007 377.267151,355.148438 372.813263,360.236847 
	C364.554901,369.671692 355.998138,378.845276 347.429504,387.670532 
	C347.195984,370.090546 347.098572,352.967682 347.001160,335.844849 
M387.582703,341.523132 
	C387.582703,341.523132 387.477325,341.587555 387.582703,341.523132 
z"/>
<path fill="#E0E0E9" opacity="1.000000" stroke="none" 
	d="
M583.043640,468.612671 
	C563.304016,468.997620 543.607971,468.995239 523.500061,468.601929 
	C525.524109,457.908630 527.959412,447.606171 530.396057,437.304016 
	C538.926941,401.235291 547.233093,365.111389 556.071899,329.118286 
	C561.596985,306.619171 567.640137,284.235260 574.042542,261.969788 
	C576.386719,253.817490 579.308411,245.397781 587.893250,241.080246 
	C602.552979,239.126038 611.422241,249.593338 616.627625,262.466980 
	C622.273071,276.428802 622.926697,291.282043 620.022644,305.612488 
	C612.468201,342.891052 603.844055,379.955200 595.443604,417.058929 
	C591.569580,434.169800 587.220825,451.173187 583.043640,468.612671 
z"/>
<path fill="#E9C0AB" opacity="1.000000" stroke="none" 
	d="
M481.007233,234.108063 
	C483.940643,229.940048 486.874054,225.772049 490.339935,221.345520 
	C496.590240,225.135147 496.899536,227.246368 492.954926,234.025986 
	C494.991547,233.220123 497.837646,232.383438 498.402557,230.755325 
	C499.616425,227.256516 499.654877,223.349899 500.213470,219.329483 
	C509.498047,216.872406 512.114746,223.249283 513.161316,232.138428 
	C517.545532,222.267578 511.342621,214.486145 503.063599,213.554016 
	C500.270660,213.239563 497.451263,213.160049 494.643982,212.973175 
	C496.056610,209.253738 497.469208,205.534302 499.356171,201.436615 
	C515.114990,202.647430 523.034607,214.642883 518.507385,229.298416 
	C517.609497,232.205063 516.849731,235.154343 516.026245,238.083969 
	C516.026245,238.083969 516.014648,238.012634 515.733521,237.867249 
	C515.309998,238.150055 515.167603,238.578232 515.025269,239.006424 
	C514.811157,239.432495 514.597046,239.858566 513.979736,240.716919 
	C508.997711,248.515244 503.465546,254.762192 494.281677,257.206116 
	C489.449738,256.445496 485.043915,255.701431 479.529388,254.770126 
	C478.439087,256.337830 476.498718,259.127838 474.232300,261.960846 
	C465.655731,267.749664 457.721649,274.036957 449.068512,279.093964 
	C439.824921,284.496033 430.066772,289.245392 418.399536,289.022614 
	C415.524292,288.804718 413.013458,288.887115 410.662262,288.314240 
	C402.429382,286.308289 394.251587,284.076385 386.052856,281.930298 
	C379.032013,277.280579 371.731079,272.991974 365.095581,267.845459 
	C361.127472,264.767761 358.104675,260.427521 354.829071,256.510864 
	C349.577759,250.231918 353.099121,243.131912 353.226227,236.371552 
	C353.291290,232.913132 353.745697,229.462021 354.363159,225.635376 
	C358.465179,226.500198 362.228180,227.737259 366.419617,229.051453 
	C376.599640,229.171387 383.887390,224.910294 387.816467,216.016800 
	C389.557251,212.076584 392.094116,210.396133 396.385010,210.076080 
	C400.446411,211.698807 406.007202,212.222229 407.458862,214.940292 
	C412.306549,224.016861 419.416382,229.268570 429.240265,232.196594 
	C434.247375,232.679382 439.017822,233.312103 443.715088,232.962250 
	C457.776733,231.914932 468.597900,222.474228 472.032410,208.820847 
	C472.614899,206.505173 472.602142,203.688644 476.349731,203.961685 
	C480.159760,204.239273 479.763336,207.307449 479.845459,209.476471 
	C480.103851,216.297943 479.988586,223.136841 479.881592,229.966873 
	C479.849335,232.026413 479.372467,234.079010 479.099243,236.134796 
	C479.457703,236.191650 479.816162,236.248505 480.174622,236.305359 
	C480.452148,235.572922 480.729706,234.840500 481.007233,234.108063 
M403.928131,241.942627 
	C400.541748,236.616135 395.475739,234.564224 389.439484,235.035187 
	C387.719452,235.169373 386.100433,236.598770 384.435089,237.434219 
	C385.563751,239.535065 386.230408,242.884918 387.906830,243.505020 
	C393.156982,245.447037 398.777527,246.195374 403.928131,241.942627 
M387.665985,230.337997 
	C390.358093,229.952042 395.066681,230.162109 395.387848,229.075378 
	C396.673035,224.727249 396.595825,219.976410 397.022583,215.374542 
	C396.371033,215.131775 395.719482,214.889008 395.067932,214.646240 
	C393.775635,216.497192 392.252747,218.231491 391.243835,220.225800 
	C389.641327,223.393555 388.381958,226.734909 387.665985,230.337997 
M414.341827,261.899536 
	C416.688416,261.899536 419.035004,261.899536 422.078491,261.899536 
	C415.391907,256.837372 401.814667,257.070587 394.881348,261.892578 
	C401.146637,261.892578 407.265259,261.892578 414.341827,261.899536 
M489.595337,234.469757 
	C489.833252,234.525558 490.071167,234.581360 490.309082,234.637161 
	C490.158783,234.502304 490.008484,234.367447 489.595337,234.469757 
M423.426605,262.624725 
	C423.426605,262.624725 423.521057,262.461884 423.521057,262.461884 
	C423.521057,262.461884 423.312836,262.486877 423.426605,262.624725 
z"/>
<path fill="#C7C7D3" opacity="1.000000" stroke="none" 
	d="
M587.435913,241.055542 
	C579.308411,245.397781 576.386719,253.817490 574.042542,261.969788 
	C567.640137,284.235260 561.596985,306.619171 556.071899,329.118286 
	C547.233093,365.111389 538.926941,401.235291 530.396057,437.304016 
	C527.959412,447.606171 525.524109,457.908630 523.029663,468.594543 
	C511.578094,468.967316 500.184967,468.956543 488.354462,468.483459 
	C489.333099,459.081635 490.749176,450.142120 492.182770,441.091797 
	C494.203461,441.091797 495.546539,440.923004 496.833008,441.121460 
	C501.994385,441.917480 504.931213,439.905792 507.104767,434.994507 
	C514.844360,417.506287 523.608582,400.453705 530.884521,382.783112 
	C538.296692,364.781555 543.225159,346.019409 544.072388,326.321075 
	C544.837646,308.527588 531.410645,301.833710 512.960571,306.096008 
	C503.705109,302.675201 494.324493,302.331635 484.388153,304.529388 
	C485.131866,298.101654 485.918549,291.979370 487.657745,286.140839 
	C488.507996,283.286438 490.617645,280.243896 493.035095,278.511444 
	C508.324402,267.554352 523.181580,256.177887 534.822571,241.162552 
	C552.207947,241.118652 569.593262,241.074753 587.435913,241.055542 
z"/>
<path fill="#5F7592" opacity="1.000000" stroke="none" 
	d="
M347.112335,335.316071 
	C347.098572,352.967682 347.195984,370.090546 347.302185,388.112488 
	C347.211273,393.359955 347.111542,397.708344 347.126801,402.478302 
	C347.147003,411.865204 343.007385,417.535675 335.759155,418.017700 
	C331.509125,418.300385 327.214172,417.907867 322.939453,417.819061 
	C322.949829,417.652710 322.892822,417.401398 322.980194,417.332153 
	C330.349335,411.490814 329.114899,403.296539 329.108856,395.369904 
	C329.069977,344.205048 329.007904,293.039886 329.184570,241.875626 
	C329.208466,234.952820 328.811462,228.620193 322.933380,223.606232 
	C327.049164,223.171646 331.207062,222.825241 335.336914,223.033966 
	C341.782867,223.359818 346.849548,228.460114 347.158539,234.990524 
	C347.441284,240.966034 347.299347,246.962997 347.296112,252.950485 
	C347.281250,280.229431 347.249298,307.508362 347.112335,335.316071 
z"/>
<path fill="#000000" opacity="1.000000" stroke="none" 
	d="
M567.747070,72.247040 
	C560.440308,65.589111 553.384521,59.180904 545.907654,52.390285 
	C571.074158,52.390285 595.830688,52.390285 620.794556,52.390285 
	C620.794556,79.746971 620.794556,107.108315 620.794556,135.448227 
	C604.360840,112.796921 586.998962,91.949203 567.747070,72.247040 
z"/>
<path fill="#1B1717" opacity="1.000000" stroke="none" 
	d="
M321.356323,116.109283 
	C323.117737,115.032356 324.724792,114.323715 326.232544,113.444771 
	C341.865692,104.331512 358.792816,100.337776 376.782684,101.093651 
	C387.883850,101.560081 397.464325,106.007790 406.322449,112.754776 
	C422.408630,125.007149 440.313232,133.389755 460.616058,135.860809 
	C463.691010,136.235077 466.850708,135.912994 469.955414,136.310226 
	C451.798370,139.975998 434.090027,137.296402 416.723633,131.961700 
	C407.059814,128.993088 397.583923,125.338898 388.195007,121.566475 
	C374.487152,116.058746 361.226257,117.671074 348.175568,123.441284 
	C336.179413,128.745224 325.596863,135.990173 317.527283,146.915649 
	C314.592133,141.762451 314.768524,136.522537 316.679932,131.093307 
	C318.378754,126.267868 319.679443,121.302261 321.356323,116.109283 
z"/>
<path fill="#2D2828" opacity="1.000000" stroke="none" 
	d="
M365.991211,228.974319 
	C362.228180,227.737259 358.465179,226.500198 354.363922,225.185059 
	C348.258484,220.790863 344.582794,215.113907 342.563812,208.202316 
	C342.155243,206.803619 340.724030,205.456100 339.422943,204.609879 
	C334.634033,201.495224 333.772400,192.581146 338.308441,189.364197 
	C340.441681,188.431839 342.393280,187.855377 345.039795,187.101654 
	C350.226105,185.925293 354.717499,184.926193 359.637634,183.897781 
	C360.898682,183.891098 361.744019,183.827148 362.561493,183.949417 
	C374.332092,185.709808 385.239166,188.783707 390.259888,201.392105 
	C390.691132,202.475113 392.512146,203.551712 393.768341,203.655792 
	C397.413177,203.957703 401.099182,203.762741 405.111298,203.762741 
	C402.712097,197.415619 406.491333,194.035660 411.737976,191.084290 
	C420.554840,186.124619 429.792480,182.655579 440.385620,181.829590 
	C453.985474,181.591202 466.823029,183.175827 478.871063,188.123215 
	C478.361633,189.664978 478.327698,191.011261 477.921082,192.233551 
	C476.666687,196.003815 475.579285,200.459595 470.844757,200.798935 
	C467.425232,201.044037 466.680725,202.795441 466.097473,205.310379 
	C462.682709,220.034622 453.072876,227.792770 438.474945,230.070145 
	C437.585052,230.208969 436.834717,231.242386 435.584961,231.931732 
	C433.090363,231.968369 431.030273,231.932861 428.970154,231.897339 
	C419.416382,229.268570 412.306549,224.016861 407.458862,214.940292 
	C406.007202,212.222229 400.446411,211.698807 396.120209,209.790131 
	C388.459198,208.452042 387.060181,209.231186 384.315521,215.276871 
	C381.283997,221.954468 376.075684,225.786560 368.852448,227.061981 
	C367.818390,227.244553 366.941071,228.314850 365.991211,228.974319 
M357.384552,190.880386 
	C357.384552,190.880386 356.911743,190.782288 356.778381,190.066086 
	C352.477753,187.622849 348.643768,189.937561 345.519745,192.147964 
	C344.196655,193.084106 344.559509,196.821564 344.678955,199.260208 
	C344.798523,201.701416 345.122528,204.325165 346.157166,206.485687 
	C347.885071,210.093857 347.813843,215.363693 353.962280,216.063568 
	C354.325348,216.289413 354.688446,216.515274 355.448853,217.316620 
	C357.054626,218.464005 358.530884,219.890488 360.290222,220.706985 
	C365.784943,223.257065 371.345795,222.982300 376.312988,219.560226 
	C380.914917,216.389801 383.433655,211.874847 383.227631,205.546799 
	C382.834595,203.410599 383.199799,200.392822 381.917816,199.290176 
	C376.244659,194.410706 369.922974,190.523254 361.369049,190.861328 
	C360.198975,190.898056 359.028870,190.934799 357.384552,190.880386 
M420.822327,220.932968 
	C437.480103,231.433517 459.655060,222.608902 463.075256,204.118240 
	C465.347504,191.833710 464.997314,191.305664 452.946533,188.035019 
	C451.482910,184.461395 450.237854,187.322739 448.070038,188.305191 
	C446.056793,188.233292 444.043518,188.161392 441.515808,187.472015 
	C438.439209,187.234222 435.050171,186.051559 432.347626,186.945084 
	C425.643707,189.161514 419.297516,192.436371 412.722168,195.072998 
	C408.000061,196.966461 407.140930,200.357300 408.424011,204.738403 
	C409.585571,208.704468 410.784882,212.666016 412.164062,216.559967 
	C413.538513,220.440628 417.029633,222.153931 420.822327,220.932968 
z"/>
<path fill="#7D8FB8" opacity="1.000000" stroke="none" 
	d="
M534.371216,241.106400 
	C523.181580,256.177887 508.324402,267.554352 493.035095,278.511444 
	C490.617645,280.243896 488.507996,283.286438 487.657745,286.140839 
	C485.918549,291.979370 485.131866,298.101654 483.982025,304.523773 
	C477.944214,306.351349 471.877350,307.762238 465.369080,308.747864 
	C465.122803,306.862427 465.250427,305.389496 465.523834,303.944183 
	C467.349335,294.293793 469.205963,284.649353 471.029419,275.002441 
	C471.006317,275.001923 471.014069,275.046936 471.271790,274.904816 
	C471.658966,274.204254 471.788452,273.645782 472.043884,272.804810 
	C472.468140,271.980835 472.766388,271.439423 473.415009,270.875488 
	C480.746216,266.309570 487.727020,261.766144 494.707825,257.222687 
	C503.465546,254.762192 508.997711,248.515244 513.860779,240.927765 
	C520.736572,240.820969 527.328186,240.935608 534.371216,241.106400 
z"/>
<path fill="#C7C7D3" opacity="1.000000" stroke="none" 
	d="
M385.775055,282.203003 
	C394.251587,284.076385 402.429382,286.308289 410.662262,288.314240 
	C413.013458,288.887115 415.524292,288.804718 418.419922,289.461609 
	C419.609070,295.930847 420.340210,301.961273 421.071381,307.991669 
	C406.211365,300.667572 392.973175,306.189728 379.569153,313.258545 
	C380.641022,305.924561 382.034302,298.512817 383.504242,291.116302 
	C384.080139,288.218536 384.827820,285.354858 385.775055,282.203003 
z"/>
<path fill="#1E1A19" opacity="1.000000" stroke="none" 
	d="
M516.350464,237.987381 
	C516.849731,235.154343 517.609497,232.205063 518.507385,229.298416 
	C523.034607,214.642883 515.114990,202.647430 499.428040,201.076813 
	C500.667603,194.233749 502.309631,187.372269 504.056305,180.073608 
	C511.242767,182.298431 513.959900,188.737320 516.633118,194.732040 
	C519.041748,200.133484 520.315979,206.040070 522.103577,211.719757 
	C522.497437,212.971313 522.946045,214.205627 523.775208,216.638596 
	C529.932739,213.651398 535.762451,210.823212 541.979126,207.955719 
	C533.802185,217.907883 525.238403,227.899338 516.350464,237.987381 
z"/>
<path fill="#1E1A19" opacity="1.000000" stroke="none" 
	d="
M515.299316,238.975769 
	C515.167603,238.578232 515.309998,238.150055 515.769531,237.870209 
	C515.915588,238.327408 515.744446,238.636276 515.299316,238.975769 
z"/>
<path fill="#212B57" opacity="1.000000" stroke="none" 
	d="
M119.634262,418.159332 
	C120.089005,416.668152 120.924484,415.180298 120.937637,413.685211 
	C121.033966,402.728668 120.965561,391.770630 120.924484,379.913818 
	C120.899872,354.142456 120.899872,329.270325 120.899872,304.009033 
	C134.627319,304.009033 148.277847,304.009033 161.960571,304.476013 
	C162.024323,354.637390 162.055862,404.331787 161.611603,454.052979 
	C148.490997,454.079803 135.846176,454.079803 123.201363,454.079803 
	C123.202805,454.336304 123.204247,454.592773 123.205688,454.849274 
	C136.471619,454.849274 149.737549,454.849274 163.453888,454.884735 
	C167.260712,454.653320 170.617111,454.386444 174.362213,454.223145 
	C175.819641,454.392548 176.888351,454.458374 178.064636,454.671387 
	C178.464615,454.698547 178.757019,454.578522 179.410324,454.401611 
	C180.501068,454.356079 181.230927,454.367432 182.168655,454.579285 
	C183.255844,454.624481 184.135178,454.469208 185.334244,454.264679 
	C186.080414,454.161377 186.506836,454.107330 187.389282,454.193359 
	C192.654251,454.347107 197.463974,454.311157 202.272003,454.384888 
	C211.864670,454.531982 221.456390,454.739258 231.034973,455.390198 
	C230.990631,460.193176 230.959808,464.527588 230.928986,468.862030 
	C205.501083,468.912109 180.073196,468.988831 154.645279,469.005371 
	C124.394073,469.025055 94.142838,468.993073 63.425541,468.911774 
	C62.959465,464.206207 62.959465,459.572388 62.959465,454.084412 
	C71.949921,454.084412 80.645157,454.084412 90.092316,454.379852 
	C93.165436,454.503326 95.486641,454.331360 97.807846,454.159363 
	C97.995636,454.109344 98.183434,454.059296 99.123413,454.114502 
	C106.469849,454.219727 113.064110,454.219727 119.634262,454.219727 
	C119.634262,441.998749 119.634262,430.079041 119.634262,418.159332 
z"/>
<path fill="#000" opacity="1.000000" stroke="none" 
	d="
M119.200531,418.267365 
	C119.634262,430.079041 119.634262,441.998749 119.634262,454.219727 
	C113.064110,454.219727 106.469849,454.219727 99.414726,454.103607 
	C94.637451,442.599182 90.321037,431.210846 86.170837,419.294128 
	C86.337051,418.765747 86.455864,418.314911 86.455864,418.314911 
	C97.226173,418.335052 107.996490,418.355225 119.200531,418.267365 
z"/>
<path fill="#586686" opacity="1.000000" stroke="none" 
	d="
M85.960419,418.241058 
	C86.455864,418.314911 86.337051,418.765747 86.150459,418.905701 
	C76.012886,418.990997 66.061913,418.936371 55.664448,418.828613 
	C65.300301,418.572754 75.382645,418.369995 85.960419,418.241058 
z"/>
<path fill="#586686" opacity="1.000000" stroke="none" 
	d="
M97.390060,454.147583 
	C95.486641,454.331360 93.165436,454.503326 90.574036,454.459900 
	C92.526649,454.208313 94.749458,454.172089 97.390060,454.147583 
z"/>
<path fill="#7C8FB8" opacity="1.000000" stroke="none" 
	d="
M513.110840,306.392792 
	C531.410645,301.833710 544.837646,308.527588 544.072388,326.321075 
	C543.225159,346.019409 538.296692,364.781555 530.884521,382.783112 
	C523.608582,400.453705 514.844360,417.506287 507.104767,434.994507 
	C504.931213,439.905792 501.994385,441.917480 496.833008,441.121460 
	C495.546539,440.923004 494.203461,441.091797 492.182770,441.091797 
	C490.749176,450.142120 489.333099,459.081635 487.878113,468.433716 
	C481.815979,468.890411 475.792786,468.934540 469.306702,468.478271 
	C469.235809,464.986023 469.627777,461.994171 470.206726,458.667358 
	C471.741394,451.770966 473.089081,445.209503 474.617310,438.447021 
	C475.880676,435.924286 476.963501,433.602539 478.046295,431.280823 
	C486.419342,432.751282 490.549286,428.974854 493.674042,421.140717 
	C502.833618,398.176758 513.093689,375.654358 522.522034,352.793732 
	C526.321228,343.581757 526.855347,333.737457 524.910217,323.907898 
	C523.460693,316.582794 519.789429,310.638947 513.110840,306.392792 
z"/>
<path fill="#403F44" opacity="1.000000" stroke="none" 
	d="
M342.011993,468.866425 
	C314.330017,468.922455 286.648071,468.978485 258.486969,468.525421 
	C258.052734,465.669922 258.097595,463.323517 258.403931,460.760681 
	C260.486267,454.488556 264.235107,449.869873 269.668945,446.175537 
	C272.718018,444.976044 275.893066,444.402832 278.010223,442.592499 
	C281.224823,439.843719 284.330902,439.851776 287.772522,441.347015 
	C281.086609,446.119659 274.473053,450.513824 267.975983,455.074005 
	C266.244476,456.289307 264.028778,458.025879 268.288879,459.616272 
	C271.070648,459.211456 273.577820,458.621796 276.000793,458.385071 
	C275.095825,460.783600 271.352448,462.827637 276.144745,464.916199 
	C276.710693,464.930969 276.975983,464.782318 277.396698,464.398407 
	C277.771576,464.213135 277.921906,464.139771 278.372894,464.070435 
	C279.106995,463.718414 279.540405,463.362396 279.982422,462.997040 
	C279.991058,462.987732 280.014160,462.977417 280.257446,462.955200 
	C280.839417,462.808838 281.039398,462.568970 281.120972,462.190796 
	C281.141327,462.168152 281.193939,462.137512 281.484619,462.117859 
	C282.148285,461.707825 282.521332,461.317474 282.919556,460.932617 
	C282.944763,460.938141 282.941315,460.886658 283.274048,460.908844 
	C284.704651,459.934540 285.802551,458.938049 286.920288,457.937988 
	C286.940125,457.934387 286.953278,457.896240 287.308411,457.922028 
	C290.469116,456.983032 293.274658,456.018280 295.823792,455.269531 
	C293.386169,457.836548 291.072205,460.085846 289.129211,462.619568 
	C288.711548,463.164215 289.634521,464.736938 290.246582,465.896881 
	C291.061279,465.673035 291.569366,465.388336 292.037994,465.057129 
	C291.998566,465.010590 292.076385,465.109192 292.389862,465.115845 
	C293.129303,464.738129 293.555298,464.353821 293.988831,463.984741 
	C293.996368,464.000000 293.970978,463.975311 294.327271,463.990601 
	C295.894775,463.146088 297.082642,462.250977 298.320953,461.432159 
	C306.928619,455.740112 310.638458,456.154022 318.481476,462.769592 
	C320.786102,464.713562 323.838287,466.451904 326.744568,466.850616 
	C331.757263,467.538269 336.924042,467.102814 342.019104,467.426514 
	C342.012024,468.098450 342.011993,468.482422 342.011993,468.866425 
z"/>
<path fill="#18224E" opacity="1.000000" stroke="none" 
	d="
M342.474792,468.941833 
	C342.011993,468.482422 342.012024,468.098450 342.472229,467.382202 
	C353.879364,467.054657 364.895844,467.849792 375.758331,466.894440 
	C396.404236,465.078705 417.028656,462.715454 437.533966,459.707001 
	C452.127167,457.565948 466.449829,453.890839 474.035645,438.937653 
	C474.101959,438.806885 474.300110,438.743073 474.436737,438.648010 
	C473.089081,445.209503 471.741394,451.770966 469.843781,458.701355 
	C462.345795,461.744904 455.387146,464.392822 448.467773,467.139801 
	C447.845764,467.386719 447.478088,468.274139 446.992279,468.864136 
	C412.307404,468.915192 377.622498,468.966217 342.474792,468.941833 
z"/>
<path fill="#607693" opacity="1.000000" stroke="none" 
	d="
M258.142487,460.977112 
	C258.097595,463.323517 258.052734,465.669922 258.025879,468.454010 
	C249.319107,468.919739 240.594299,468.947784 231.399246,468.918945 
	C230.959808,464.527588 230.990631,460.193176 231.499878,455.367310 
	C240.518539,454.875854 249.058792,454.875854 257.755707,454.875854 
	C257.914459,457.380310 258.028473,459.178711 258.142487,460.977112 
z"/>
<path fill="#222C57" opacity="1.000000" stroke="none" 
	d="
M447.453796,468.953918 
	C447.478088,468.274139 447.845764,467.386719 448.467773,467.139801 
	C455.387146,464.392822 462.345795,461.744904 469.656799,459.036316 
	C469.627777,461.994171 469.235809,464.986023 468.835327,468.387085 
	C461.856293,468.878784 454.885834,468.961273 447.453796,468.953918 
z"/>
<path fill="#4D5D80" opacity="1.000000" stroke="none" 
	d="
M161.928360,304.009033 
	C148.277847,304.009033 134.627319,304.009033 120.899872,304.009033 
	C120.899872,329.270325 120.899872,354.142456 120.884033,379.438110 
	C106.383423,379.895020 91.883896,380.337250 77.419136,379.815582 
	C68.052299,379.477783 62.793232,378.254517 62.924488,365.071106 
	C63.184734,338.932648 62.987865,312.789764 63.010468,286.648712 
	C63.016628,279.521942 67.223473,275.104675 74.419243,275.049561 
	C123.993431,274.669983 173.568237,274.372559 223.648163,274.425354 
	C226.358337,277.126953 229.398071,279.104034 230.549774,281.867859 
	C231.890472,285.085236 231.896408,288.988464 231.928314,292.598938 
	C232.060516,307.558594 232.321518,322.529907 231.885040,337.477966 
	C231.480759,351.323029 234.574875,365.552063 228.080490,378.852692 
	C210.382645,379.236542 192.684799,379.620361 174.498932,379.557220 
	C174.007690,358.178802 174.003784,337.247375 174.001465,316.315948 
	C174.000092,304.014374 174.001221,304.014374 161.928360,304.009033 
z"/>
<path fill="#D9A895" opacity="1.000000" stroke="none" 
	d="
M258.403931,460.760681 
	C258.028473,459.178711 257.914459,457.380310 257.755707,454.875854 
	C249.058792,454.875854 240.518539,454.875854 231.513397,454.898773 
	C221.456390,454.739258 211.864670,454.531982 202.272003,454.384888 
	C197.463974,454.311157 192.654251,454.347107 187.637833,453.905701 
	C211.983429,447.702759 232.358734,434.105682 252.160004,418.903107 
	C252.698578,418.664124 252.970367,418.476379 253.195023,418.220428 
	C275.847565,418.165283 298.500122,418.110138 321.446625,418.455811 
	C315.756866,423.242279 309.773193,427.627960 303.378845,432.000061 
	C299.224091,431.459534 295.479126,430.505890 291.735992,430.512878 
	C286.999115,430.521759 281.988281,427.010132 277.523193,431.076843 
	C274.093170,434.200775 270.906067,437.592316 267.628174,440.882050 
	C265.170654,443.348450 266.242310,444.561890 269.182800,445.376770 
	C269.242676,445.863068 269.281952,446.055511 269.321198,446.247925 
	C264.235107,449.869873 260.486267,454.488556 258.403931,460.760681 
z"/>
<path fill="#000" opacity="1.000000" stroke="none" 
	d="
M251.940323,419.022552 
	C232.358734,434.105682 211.983429,447.702759 187.181824,453.765594 
	C186.506836,454.107330 186.080414,454.161377 184.962585,454.134216 
	C183.501053,454.161621 182.730927,454.270203 181.960785,454.378784 
	C181.230927,454.367432 180.501068,454.356079 179.129761,454.292603 
	C178.311234,454.335022 178.134140,454.429626 177.957062,454.524231 
	C176.888351,454.458374 175.819641,454.392548 174.415131,453.748535 
	C174.092804,441.638672 174.106277,430.106934 174.119751,418.575226 
	C199.665955,418.516479 225.212173,418.457703 251.239655,418.548340 
	C251.720932,418.697693 251.940323,419.022552 251.940323,419.022552 
z"/>
<path fill="#637793" opacity="1.000000" stroke="none" 
	d="
M174.094925,418.064850 
	C174.106277,430.106934 174.092804,441.638672 174.026428,453.644989 
	C170.617111,454.386444 167.260712,454.653320 163.344620,454.704437 
	C162.600922,454.261383 162.368423,454.107208 162.087418,454.026184 
	C162.055862,404.331787 162.024323,354.637390 161.960571,304.476013 
	C174.001221,304.014374 174.000092,304.014374 174.001465,316.315948 
	C174.003784,337.247375 174.007690,358.178802 174.034607,379.584564 
	C174.062241,392.557434 174.066177,405.055939 174.094925,418.064850 
z"/>
<path fill="#607693" opacity="1.000000" stroke="none" 
	d="
M228.529846,378.881439 
	C234.574875,365.552063 231.480759,351.323029 231.885040,337.477966 
	C232.321518,322.529907 232.060516,307.558594 231.928314,292.598938 
	C231.896408,288.988464 231.890472,285.085236 230.549774,281.867859 
	C229.398071,279.104034 226.358337,277.126953 224.120087,274.472473 
	C228.084686,274.119415 232.088348,273.949890 236.079422,274.104553 
	C243.023209,274.373749 247.045395,278.615112 247.049652,285.512909 
	C247.066162,312.170166 247.059036,338.827454 247.056259,365.484711 
	C247.055222,375.343811 243.443069,378.916077 233.477463,378.929932 
	C231.978058,378.932037 230.478607,378.917206 228.529846,378.881439 
z"/>
<path fill="#000" opacity="1.000000" stroke="none" 
	d="
M303.789490,432.013611 
	C309.773193,427.627960 315.756866,423.242279 321.905457,418.576202 
	C322.070343,418.295776 322.499176,418.047089 322.719299,417.933075 
	C327.214172,417.907867 331.509125,418.300385 335.759155,418.017700 
	C343.007385,417.535675 347.147003,411.865204 347.435913,402.345276 
	C352.079376,397.817474 356.528687,393.844299 360.980774,390.291748 
	C360.124908,394.890289 359.241791,399.063293 358.412689,403.247009 
	C356.516266,412.817047 354.646210,422.392273 352.765503,431.965424 
	C351.497559,435.751678 350.229584,439.537903 348.528351,443.817261 
	C346.042816,444.199066 343.868744,444.489990 341.957977,443.911377 
	C329.203766,440.049072 316.505768,436.001221 303.789490,432.013611 
z"/>
<path fill="#637793" opacity="1.000000" stroke="none" 
	d="
M252.160004,418.903107 
	C251.940323,419.022552 251.720932,418.697693 251.684174,418.505310 
	C251.901474,418.238464 252.155563,418.163940 252.802338,418.154938 
	C252.970367,418.476379 252.698578,418.664124 252.160004,418.903107 
z"/>
<path fill="#CE8A6F" opacity="1.000000" stroke="none" 
	d="
M479.176086,187.871017 
	C466.823029,183.175827 453.985474,181.591202 440.069672,181.584290 
	C433.014801,181.952255 426.750366,182.721832 420.467010,183.276871 
	C418.339966,183.464767 416.165009,183.110046 414.351440,182.853180 
	C428.773560,177.816574 443.173187,176.372971 457.856140,179.125549 
	C462.994598,180.088852 468.014679,181.683456 473.057129,182.996613 
	C473.025391,183.003433 473.030731,182.938843 472.933960,183.218506 
	C473.254089,183.340866 473.671051,183.183563 474.318604,183.014603 
	C474.549225,183.002960 475.010712,182.985336 475.067627,183.125443 
	C475.209534,183.316101 475.294525,183.366669 475.379486,183.417221 
	C475.247986,183.282074 475.116486,183.146942 475.014099,182.586594 
	C474.383545,178.612610 473.940002,175.001007 472.937195,171.552002 
	C472.622131,170.468506 470.754089,169.041901 469.683136,169.110916 
	C465.142883,169.403473 460.635071,170.199600 455.738892,170.786713 
	C444.497192,166.678802 433.309143,166.226776 421.650604,167.548416 
	C412.151886,166.543365 402.938446,165.152664 393.739227,165.241455 
	C387.821594,165.298584 381.924927,167.530746 375.564270,168.846634 
	C370.396820,169.284103 365.683929,169.662964 361.018127,169.639496 
	C361.354553,167.947571 361.707336,166.668533 361.923401,165.366776 
	C363.938690,153.224503 363.931915,153.223373 375.929108,150.855392 
	C392.996979,148.086670 409.244781,152.487640 425.562897,156.449707 
	C442.224457,160.495148 459.069580,161.448700 476.535278,159.435379 
	C477.913788,164.287415 479.100525,168.641464 479.689514,173.074921 
	C481.150360,184.070282 482.846405,195.074203 483.449615,206.129135 
	C483.825958,213.026932 482.387054,220.023758 481.762756,226.976151 
	C481.510071,229.075104 481.257355,231.174042 481.005920,233.690521 
	C480.729706,234.840500 480.452148,235.572922 480.174622,236.305359 
	C479.816162,236.248505 479.457703,236.191650 479.099243,236.134796 
	C479.372467,234.079010 479.849335,232.026413 479.881592,229.966873 
	C479.988586,223.136841 480.103851,216.297943 479.845459,209.476471 
	C479.763336,207.307449 480.159760,204.239273 476.349731,203.961685 
	C472.602142,203.688644 472.614899,206.505173 472.032410,208.820847 
	C468.597900,222.474228 457.776733,231.914932 443.715088,232.962250 
	C439.017822,233.312103 434.247375,232.679382 429.240265,232.196594 
	C431.030273,231.932861 433.090363,231.968369 436.009949,231.981934 
	C453.144379,231.071976 465.753540,222.521835 469.527008,206.613617 
	C469.893921,205.066711 471.330536,203.083649 472.724182,202.594116 
	C477.747498,200.829559 481.357574,196.857697 481.394806,191.539017 
	C481.403290,190.321594 479.954285,189.093948 479.176086,187.871017 
z"/>
<path fill="#1C1817" opacity="1.000000" stroke="none" 
	d="
M482.090851,226.779770 
	C482.387054,220.023758 483.825958,213.026932 483.449615,206.129135 
	C482.846405,195.074203 481.150360,184.070282 479.689514,173.074921 
	C479.100525,168.641464 477.913788,164.287415 476.964294,159.500458 
	C481.508484,155.352829 486.200287,151.730270 490.642090,147.823471 
	C498.992401,140.478867 503.448669,131.409195 502.199524,119.935127 
	C506.614624,130.023468 505.785126,140.132111 501.434814,149.637955 
	C498.094208,156.937637 493.178711,163.509644 489.087158,170.477798 
	C488.140961,172.089249 486.703430,174.337463 487.175507,175.716187 
	C493.245239,193.442825 487.245819,209.943207 482.090851,226.779770 
z"/>
<path fill="#1C1817" opacity="1.000000" stroke="none" 
	d="
M375.637146,150.586563 
	C363.931915,153.223373 363.938690,153.224503 361.923401,165.366776 
	C361.707336,166.668533 361.354553,167.947571 360.855408,169.933228 
	C359.736511,171.311310 358.647522,171.849380 357.959961,172.708664 
	C356.897614,174.036407 356.109802,175.583786 355.205597,177.038040 
	C356.718414,177.717834 358.231232,178.397629 359.716858,179.489838 
	C359.529419,181.243851 359.369171,182.585480 359.208923,183.927109 
	C354.717499,184.926193 350.226105,185.925293 345.355713,186.963104 
	C334.688568,174.061737 350.201385,152.632370 363.566864,151.093292 
	C367.470978,150.643707 371.417908,150.565933 375.637146,150.586563 
z"/>
<path fill="#D28D71" opacity="1.000000" stroke="none" 
	d="
M494.410553,213.194000 
	C497.451263,213.160049 500.270660,213.239563 503.063599,213.554016 
	C511.342621,214.486145 517.545532,222.267578 513.161316,232.138428 
	C512.114746,223.249283 509.498047,216.872406 500.213470,219.329483 
	C499.654877,223.349899 499.616425,227.256516 498.402557,230.755325 
	C497.837646,232.383438 494.991547,233.220123 492.954926,234.025986 
	C496.899536,227.246368 496.590240,225.135147 490.531860,221.054474 
	C491.519928,218.486237 492.848541,215.950546 494.410553,213.194000 
z"/>
<path fill="#E8C1AC" opacity="1.000000" stroke="none" 
	d="
M303.378845,432.000061 
	C316.505768,436.001221 329.203766,440.049072 341.957977,443.911377 
	C343.868744,444.489990 346.042816,444.199066 348.439270,444.190186 
	C356.636932,442.352112 364.507416,440.707062 372.335388,438.879791 
	C375.378326,438.169464 378.325226,437.047882 382.035828,435.934906 
	C396.935730,430.426727 411.192627,425.287323 425.228668,419.602570 
	C427.934143,418.506805 429.774231,415.274384 432.013489,413.027588 
	C440.089478,417.634033 448.165466,422.240509 456.438599,427.291992 
	C451.195709,435.824219 443.544250,441.371796 435.159668,445.910278 
	C416.048584,456.254852 395.137726,459.714508 373.816010,460.884644 
	C362.371429,461.512695 350.817902,460.366547 339.400330,461.204071 
	C331.204407,461.805267 324.123413,460.224976 317.162384,456.208710 
	C309.675476,451.889008 297.428772,456.156006 293.970978,463.975311 
	C293.970978,463.975311 293.996368,464.000000 293.673462,463.952759 
	C292.925812,464.306732 292.501129,464.707977 292.076416,465.109192 
	C292.076385,465.109192 291.998566,465.010590 291.739044,465.012451 
	C290.966339,465.288269 290.453125,465.562164 289.939911,465.836060 
	C289.634521,464.736938 288.711548,463.164215 289.129211,462.619568 
	C291.072205,460.085846 293.386169,457.836548 296.151550,455.173218 
	C298.871796,453.439850 301.007843,452.018738 303.520264,450.347229 
	C294.807098,449.757660 289.915588,452.080200 286.953278,457.896240 
	C286.953278,457.896240 286.940125,457.934387 286.573181,457.905762 
	C285.117920,458.880310 284.029633,459.883484 282.941315,460.886658 
	C282.941315,460.886658 282.944763,460.938141 282.621338,460.931458 
	C281.929932,461.329010 281.561951,461.733276 281.193939,462.137512 
	C281.193939,462.137512 281.141327,462.168152 280.869385,462.190704 
	C280.402985,462.467987 280.208588,462.722687 280.014160,462.977417 
	C280.014160,462.977417 279.991058,462.987732 279.683594,462.986420 
	C278.941467,463.345551 278.506866,463.705963 278.072235,464.066406 
	C277.921906,464.139771 277.771576,464.213135 277.165955,464.320984 
	C276.373077,464.419128 276.107300,464.592682 275.913239,464.876160 
	C271.352448,462.827637 275.095825,460.783600 275.972595,458.369202 
	C276.028595,458.000366 276.007629,458.061554 276.306824,458.004089 
	C276.849030,457.624725 277.092072,457.302826 277.628845,456.847504 
	C282.282623,453.547729 286.642700,450.381409 292.040833,446.461212 
	C282.296814,449.232300 275.431335,454.861481 268.014313,459.431366 
	C264.028778,458.025879 266.244476,456.289307 267.975983,455.074005 
	C274.473053,450.513824 281.086609,446.119659 288.120178,441.214844 
	C290.503326,440.133911 292.422791,439.501373 294.342255,438.868835 
	C291.184296,437.348083 288.158722,436.433105 285.067810,436.061646 
	C283.321259,435.851746 281.113892,436.002502 279.730011,436.919861 
	C276.029755,439.372833 272.662048,442.327545 269.162231,445.082886 
	C266.242310,444.561890 265.170654,443.348450 267.628174,440.882050 
	C270.906067,437.592316 274.093170,434.200775 277.523193,431.076843 
	C281.988281,427.010132 286.999115,430.521759 291.735992,430.512878 
	C295.479126,430.505890 299.224091,431.459534 303.378845,432.000061 
z"/>
<path fill="#928B96" opacity="1.000000" stroke="none" 
	d="
M294.327271,463.990601 
	C297.428772,456.156006 309.675476,451.889008 317.162384,456.208710 
	C324.123413,460.224976 331.204407,461.805267 339.400330,461.204071 
	C350.817902,460.366547 362.371429,461.512695 373.816010,460.884644 
	C395.137726,459.714508 416.048584,456.254852 435.159668,445.910278 
	C443.544250,441.371796 451.195709,435.824219 456.762115,427.440002 
	C463.652100,428.469666 470.415741,429.796295 477.612823,431.201843 
	C476.963501,433.602539 475.880676,435.924286 474.617310,438.447021 
	C474.300110,438.743073 474.101959,438.806885 474.035645,438.937653 
	C466.449829,453.890839 452.127167,457.565948 437.533966,459.707001 
	C417.028656,462.715454 396.404236,465.078705 375.758331,466.894440 
	C364.895844,467.849792 353.879364,467.054657 342.479309,467.094269 
	C336.924042,467.102814 331.757263,467.538269 326.744568,466.850616 
	C323.838287,466.451904 320.786102,464.713562 318.481476,462.769592 
	C310.638458,456.154022 306.928619,455.740112 298.320953,461.432159 
	C297.082642,462.250977 295.894775,463.146088 294.327271,463.990601 
z"/>
<path fill="#E8C1AC" opacity="1.000000" stroke="none" 
	d="
M471.052490,275.002960 
	C469.205963,284.649353 467.349335,294.293793 465.523834,303.944183 
	C465.250427,305.389496 465.122803,306.862427 464.963135,308.766174 
	C459.251740,315.072052 453.960022,321.495453 447.625519,326.633087 
	C441.722565,331.420654 434.245270,332.728851 426.489868,332.257263 
	C421.422485,331.949158 418.975983,329.163300 419.236420,324.714020 
	C419.470428,320.714844 421.106659,316.797760 422.671692,312.485565 
	C434.529358,311.562653 443.405273,305.586029 451.016205,298.168945 
	C458.301453,291.069275 464.420746,282.773193 471.052490,275.002960 
z"/>
<path fill="#D28D71" opacity="1.000000" stroke="none" 
	d="
M471.029419,275.002441 
	C464.420746,282.773193 458.301453,291.069275 451.016205,298.168945 
	C443.405273,305.586029 434.529358,311.562653 422.814087,312.139099 
	C422.083923,310.976074 421.758759,309.800659 421.252472,308.308441 
	C420.340210,301.961273 419.609070,295.930847 418.857544,289.461456 
	C430.066772,289.245392 439.824921,284.496033 449.068512,279.093964 
	C457.721649,274.036957 465.655731,267.749664 474.237671,262.335632 
	C474.067627,265.411011 473.566162,268.154510 473.064636,270.898010 
	C472.766388,271.439423 472.468140,271.980835 471.807648,272.965302 
	C471.301605,273.954529 471.157837,274.500732 471.014069,275.046936 
	C471.014069,275.046936 471.006317,275.001923 471.029419,275.002441 
z"/>
<path fill="#040F3D" opacity="1.000000" stroke="none" 
	d="
M360.978027,389.871094 
	C356.528687,393.844299 352.079376,397.817474 347.320953,401.923706 
	C347.111542,397.708344 347.211273,393.359955 347.438324,388.569641 
	C355.998138,378.845276 364.554901,369.671692 372.813263,360.236847 
	C377.267151,355.148438 381.210388,349.613007 385.691986,344.139618 
	C386.000000,344.000000 386.009186,344.007324 386.009186,344.007324 
	C383.763184,349.475037 381.561066,354.961304 379.260254,360.405853 
	C376.304901,367.399445 373.270325,374.359497 369.786743,381.680420 
	C366.528442,384.641602 363.753235,387.256348 360.978027,389.871094 
z"/>
<path fill="#18224E" opacity="1.000000" stroke="none" 
	d="
M431.858521,412.713867 
	C429.774231,415.274384 427.934143,418.506805 425.228668,419.602570 
	C411.192627,425.287323 396.935730,430.426727 382.384766,435.776794 
	C384.840729,433.965240 387.551636,431.914429 390.515747,430.340454 
	C400.907227,424.822601 411.423523,419.538605 421.775787,413.949738 
	C422.857147,413.365967 423.487488,411.409882 423.762634,409.981750 
	C424.330994,407.031830 423.793610,403.676849 424.985657,401.071747 
	C430.755890,388.461700 436.948608,376.044983 444.076843,363.975372 
	C443.017395,366.951569 441.916168,369.913666 440.905975,372.906494 
	C437.299591,383.590729 433.840424,394.326782 430.064240,404.950287 
	C428.967896,408.034637 429.178528,410.348083 431.858521,412.713867 
z"/>
<path fill="#C7C7D3" opacity="1.000000" stroke="none" 
	d="
M360.980743,390.291748 
	C363.753235,387.256348 366.528442,384.641602 369.651733,382.013763 
	C369.764923,383.456024 369.743835,384.986542 369.262390,386.355133 
	C363.970337,401.398895 358.606567,416.417480 353.013855,431.704163 
	C354.646210,422.392273 356.516266,412.817047 358.412689,403.247009 
	C359.241791,399.063293 360.124908,394.890289 360.980743,390.291748 
z"/>
<path fill="#040F3D" opacity="1.000000" stroke="none" 
	d="
M387.530029,341.555359 
	C387.477325,341.587555 387.582703,341.523132 387.530029,341.555359 
z"/>
<path fill="#040F3D" opacity="1.000000" stroke="none" 
	d="
M385.996521,343.995728 
	C386.097565,343.961304 386.202148,343.931183 386.157959,343.954163 
	C386.009186,344.007324 386.000000,344.000000 385.996521,343.995728 
z"/>
<path fill="#221D1E" opacity="1.000000" stroke="none" 
	d="
M473.415039,270.875488 
	C473.566162,268.154510 474.067627,265.411011 474.563721,262.292664 
	C476.498718,259.127838 478.439087,256.337830 479.529388,254.770126 
	C485.043915,255.701431 489.449738,256.445496 494.281677,257.206116 
	C487.727020,261.766144 480.746216,266.309570 473.415039,270.875488 
z"/>
<path fill="#CC7D61" opacity="1.000000" stroke="none" 
	d="
M403.943420,242.330521 
	C398.777527,246.195374 393.156982,245.447037 387.906830,243.505020 
	C386.230408,242.884918 385.563751,239.535065 384.435089,237.434219 
	C386.100433,236.598770 387.719452,235.169373 389.439484,235.035187 
	C395.475739,234.564224 400.541748,236.616135 403.943420,242.330521 
z"/>
<path fill="#FFFFFF" opacity="1.000000" stroke="none" 
	d="
M387.321686,230.170410 
	C388.381958,226.734909 389.641327,223.393555 391.243835,220.225800 
	C392.252747,218.231491 393.775635,216.497192 395.067932,214.646240 
	C395.719482,214.889008 396.371033,215.131775 397.022583,215.374542 
	C396.595825,219.976410 396.673035,224.727249 395.387848,229.075378 
	C395.066681,230.162109 390.358093,229.952042 387.321686,230.170410 
z"/>
<path fill="#1E1A19" opacity="1.000000" stroke="none" 
	d="
M366.419617,229.051453 
	C366.941071,228.314850 367.818390,227.244553 368.852448,227.061981 
	C376.075684,225.786560 381.283997,221.954468 384.315521,215.276871 
	C387.060181,209.231186 388.459198,208.452042 395.737061,209.696259 
	C392.094116,210.396133 389.557251,212.076584 387.816467,216.016800 
	C383.887390,224.910294 376.599640,229.171387 366.419617,229.051453 
z"/>
<path fill="#CC7D61" opacity="1.000000" stroke="none" 
	d="
M413.862854,261.896057 
	C407.265259,261.892578 401.146637,261.892578 394.881348,261.892578 
	C401.814667,257.070587 415.391907,256.837372 422.078491,261.899536 
	C419.035004,261.899536 416.688416,261.899536 413.862854,261.896057 
z"/>
<path fill="#D28D71" opacity="1.000000" stroke="none" 
	d="
M489.726776,234.351166 
	C490.008484,234.367447 490.158783,234.502304 490.309082,234.637161 
	C490.071167,234.581360 489.833252,234.525558 489.726776,234.351166 
z"/>
<path fill="#CC7D61" opacity="1.000000" stroke="none" 
	d="
M423.369720,262.555786 
	C423.312836,262.486877 423.521057,262.461884 423.521057,262.461884 
	C423.521057,262.461884 423.426605,262.624725 423.369720,262.555786 
z"/>
<path fill="#E5BBA5" opacity="1.000000" stroke="none" 
	d="
M359.637634,183.897781 
	C359.369171,182.585480 359.529419,181.243851 359.973328,179.220001 
	C369.721222,176.602753 378.490204,179.658585 387.356079,182.204147 
	C388.930603,182.656235 390.718903,182.363770 392.408508,182.415115 
	C392.440369,180.362137 393.218964,177.863800 392.324188,176.363419 
	C391.068726,174.258255 388.816315,172.296799 386.542572,171.356796 
	C383.244385,169.993286 379.546356,169.596909 376.018860,168.788025 
	C381.924927,167.530746 387.821594,165.298584 393.739227,165.241455 
	C402.938446,165.152664 412.151886,166.543365 421.278687,167.639496 
	C418.707520,168.819901 416.014618,169.311234 413.766876,170.586929 
	C408.439209,173.610641 408.669525,180.101166 414.011932,183.003296 
	C416.165009,183.110046 418.339966,183.464767 420.467010,183.276871 
	C426.750366,182.721832 433.014801,181.952255 439.602600,181.511887 
	C429.792480,182.655579 420.554840,186.124619 411.737976,191.084290 
	C406.491333,194.035660 402.712097,197.415619 405.111298,203.762741 
	C401.099182,203.762741 397.413177,203.957703 393.768341,203.655792 
	C392.512146,203.551712 390.691132,202.475113 390.259888,201.392105 
	C385.239166,188.783707 374.332092,185.709808 362.561493,183.949417 
	C361.744019,183.827148 360.898682,183.891098 359.637634,183.897781 
z"/>
<path fill="#E9D6C9" opacity="1.000000" stroke="none" 
	d="
M452.914734,188.797592 
	C464.997314,191.305664 465.347504,191.833710 463.075256,204.118240 
	C459.655060,222.608902 437.480103,231.433517 420.321564,220.536530 
	C417.265442,215.454010 414.347046,210.917084 412.330963,206.009491 
	C411.509155,204.009079 412.644684,201.204590 412.949158,199.158920 
	C413.479980,203.992538 415.448730,207.717712 419.708130,209.159027 
	C422.563385,210.125198 425.868317,209.762527 429.285950,210.154694 
	C432.934662,214.888412 437.258240,214.939255 441.996582,213.391479 
	C442.144043,215.051834 442.305634,216.349152 442.467224,217.646469 
	C444.354980,217.375900 446.345734,217.364273 448.068573,216.679016 
	C448.594116,216.469986 448.382538,214.407639 448.508514,213.194092 
	C447.006866,213.072723 445.506805,212.918091 444.002808,212.845490 
	C443.349274,212.813950 442.687592,212.951096 442.163666,212.675293 
	C445.961639,208.935394 445.601685,204.804260 444.026306,200.456329 
	C447.515442,199.754410 450.626892,199.128464 453.738342,198.502518 
	C453.710205,197.864456 453.682068,197.226379 453.653931,196.588303 
	C447.569641,196.565948 441.485321,196.543579 435.276062,196.158203 
	C434.072021,193.936417 432.992950,192.077621 432.297058,190.087204 
	C435.796906,189.333557 438.913605,188.711517 442.030273,188.089478 
	C444.043518,188.161392 446.056793,188.233292 448.746124,188.403076 
	C450.586395,188.599838 451.750549,188.698715 452.914734,188.797592 
z"/>
<path fill="#EBD9CD" opacity="1.000000" stroke="none" 
	d="
M382.650208,206.003494 
	C383.433655,211.874847 380.914917,216.389801 376.312988,219.560226 
	C371.345795,222.982300 365.784943,223.257065 360.290222,220.706985 
	C358.530884,219.890488 357.054626,218.464005 355.236725,216.627731 
	C355.319366,213.594604 355.614136,211.250381 355.917358,208.522736 
	C355.873627,207.375290 355.821472,206.611267 355.862427,205.837524 
	C355.955566,205.827789 356.012238,206.006287 356.390991,206.023209 
	C361.728119,205.489990 363.100800,202.174164 363.438599,197.931946 
	C365.743896,199.283859 367.515961,200.060089 367.798981,203.290863 
	C368.035645,205.992538 370.898468,208.464188 372.598389,211.037689 
	C374.676697,209.447983 376.755035,207.858276 379.406952,205.829819 
	C379.728180,205.849182 381.139160,205.934235 382.576050,206.021011 
	C382.601959,206.022736 382.650208,206.003494 382.650208,206.003494 
z"/>
<path fill="#1C1817" opacity="1.000000" stroke="none" 
	d="
M478.871063,188.123215 
	C479.954285,189.093948 481.403290,190.321594 481.394806,191.539017 
	C481.357574,196.857697 477.747498,200.829559 472.724182,202.594116 
	C471.330536,203.083649 469.893921,205.066711 469.527008,206.613617 
	C465.753540,222.521835 453.144379,231.071976 436.444397,231.909775 
	C436.834717,231.242386 437.585052,230.208969 438.474945,230.070145 
	C453.072876,227.792770 462.682709,220.034622 466.097473,205.310379 
	C466.680725,202.795441 467.425232,201.044037 470.844757,200.798935 
	C475.579285,200.459595 476.666687,196.003815 477.921082,192.233551 
	C478.327698,191.011261 478.361633,189.664978 478.871063,188.123215 
z"/>
<path fill="#221D1E" opacity="1.000000" stroke="none" 
	d="
M412.889648,198.765930 
	C412.644684,201.204590 411.509155,204.009079 412.330963,206.009491 
	C414.347046,210.917084 417.265442,215.454010 419.982605,220.428070 
	C417.029633,222.153931 413.538513,220.440628 412.164062,216.559967 
	C410.784882,212.666016 409.585571,208.704468 408.424011,204.738403 
	C407.140930,200.357300 408.000061,196.966461 412.722168,195.072998 
	C419.297516,192.436371 425.643707,189.161514 432.347626,186.945084 
	C435.050171,186.051559 438.439209,187.234222 441.773041,187.780746 
	C438.913605,188.711517 435.796906,189.333557 431.930115,190.023041 
	C425.083221,192.982300 418.986420,195.874115 412.889648,198.765930 
z"/>
<path fill="#E9D6C9" opacity="1.000000" stroke="none" 
	d="
M382.938904,205.775146 
	C382.650208,206.003494 382.601959,206.022736 382.277527,205.815125 
	C380.507965,204.037262 379.070923,202.459457 377.616058,200.898254 
	C373.682953,196.677704 369.264069,193.969543 363.181641,195.945755 
	C362.718414,194.091751 362.311035,192.620392 361.903687,191.149033 
	C369.922974,190.523254 376.244659,194.410706 381.917816,199.290176 
	C383.199799,200.392822 382.834595,203.410599 382.938904,205.775146 
z"/>
<path fill="#1B1717" opacity="1.000000" stroke="none" 
	d="
M353.570038,215.840942 
	C347.813843,215.363693 347.885071,210.093857 346.157166,206.485687 
	C345.122528,204.325165 344.798523,201.701416 344.678955,199.260208 
	C344.559509,196.821564 344.196655,193.084106 345.519745,192.147964 
	C348.643768,189.937561 352.477753,187.622849 356.445801,190.501816 
	C353.726349,191.753052 351.339539,192.568558 348.611328,193.381073 
	C348.469269,197.248215 348.668579,201.118347 348.880829,205.373123 
	C350.452545,209.118835 352.011292,212.479889 353.570038,215.840942 
z"/>
<path fill="#FFFFFF" opacity="1.000000" stroke="none" 
	d="
M361.636353,191.005188 
	C362.311035,192.620392 362.718414,194.091751 363.164490,196.193436 
	C363.137207,197.149811 363.108307,197.479095 363.116425,197.811630 
	C363.100800,202.174164 361.728119,205.489990 356.384674,205.588257 
	C356.619354,200.414780 357.239075,195.693161 357.858765,190.971527 
	C359.028870,190.934799 360.198975,190.898056 361.636353,191.005188 
z"/>
<path fill="#4F433E" opacity="1.000000" stroke="none" 
	d="
M357.621643,190.925964 
	C357.239075,195.693161 356.619354,200.414780 356.005920,205.571350 
	C356.012238,206.006287 355.955566,205.827789 355.570374,205.698288 
	C353.107666,201.507202 351.030182,197.445633 348.952698,193.384064 
	C351.339539,192.568558 353.726349,191.753052 356.512451,190.859924 
	C356.911743,190.782288 357.384552,190.880386 357.621643,190.925964 
z"/>
<path fill="#C7C7D3" opacity="1.000000" stroke="none" 
	d="
M353.766174,215.952255 
	C352.011292,212.479889 350.452545,209.118835 349.233887,205.440430 
	C351.685638,206.384094 353.797272,207.645126 355.908905,208.906143 
	C355.614136,211.250381 355.319366,213.594604 355.038055,216.339981 
	C354.688446,216.515274 354.325348,216.289413 353.766174,215.952255 
z"/>
<path fill="#221D1E" opacity="1.000000" stroke="none" 
	d="
M452.930634,188.416306 
	C451.750549,188.698715 450.586395,188.599838 449.173340,188.336288 
	C450.237854,187.322739 451.482910,184.461395 452.930634,188.416306 
z"/>
<path fill="#E8C1AC" opacity="1.000000" stroke="none" 
	d="
M471.271790,274.904816 
	C471.157837,274.500732 471.301605,273.954529 471.681641,273.247833 
	C471.788452,273.645782 471.658966,274.204254 471.271790,274.904816 
z"/>
<path fill="#586686" opacity="1.000000" stroke="none" 
	d="
M161.611603,454.052979 
	C162.368423,454.107208 162.600922,454.261383 162.894196,454.668976 
	C149.737549,454.849274 136.471619,454.849274 123.205688,454.849274 
	C123.204247,454.592773 123.202805,454.336304 123.201363,454.079803 
	C135.846176,454.079803 148.490997,454.079803 161.611603,454.052979 
z"/>
<path fill="#637793" opacity="1.000000" stroke="none" 
	d="
M182.168655,454.579285 
	C182.730927,454.270203 183.501053,454.161621 184.642838,454.183472 
	C184.135178,454.469208 183.255844,454.624481 182.168655,454.579285 
z"/>
<path fill="#586686" opacity="1.000000" stroke="none" 
	d="
M178.064636,454.671387 
	C178.134140,454.429626 178.311234,454.335022 178.768875,454.349487 
	C178.757019,454.578522 178.464615,454.698547 178.064636,454.671387 
z"/>
<path fill="#928B96" opacity="1.000000" stroke="none" 
	d="
M269.182800,445.376770 
	C272.662048,442.327545 276.029755,439.372833 279.730011,436.919861 
	C281.113892,436.002502 283.321259,435.851746 285.067810,436.061646 
	C288.158722,436.433105 291.184296,437.348083 294.342255,438.868835 
	C292.422791,439.501373 290.503326,440.133911 288.236176,440.898621 
	C284.330902,439.851776 281.224823,439.843719 278.010223,442.592499 
	C275.893066,444.402832 272.718018,444.976044 269.668945,446.175537 
	C269.281952,446.055511 269.242676,445.863068 269.182800,445.376770 
z"/>
<path fill="#928B96" opacity="1.000000" stroke="none" 
	d="
M268.288879,459.616272 
	C275.431335,454.861481 282.296814,449.232300 292.040833,446.461212 
	C286.642700,450.381409 282.282623,453.547729 277.307678,456.905640 
	C276.464386,457.418701 276.236023,457.740112 276.007629,458.061554 
	C276.007629,458.061554 276.028595,458.000366 276.056824,458.016235 
	C273.577820,458.621796 271.070648,459.211456 268.288879,459.616272 
z"/>
<path fill="#8F7D75" opacity="1.000000" stroke="none" 
	d="
M287.308411,457.922028 
	C289.915588,452.080200 294.807098,449.757660 303.520264,450.347229 
	C301.007843,452.018738 298.871796,453.439850 296.407990,454.957214 
	C293.274658,456.018280 290.469116,456.983032 287.308411,457.922028 
z"/>
<path fill="#8F7D75" opacity="1.000000" stroke="none" 
	d="
M283.274048,460.908844 
	C284.029633,459.883484 285.117920,458.880310 286.553314,457.909332 
	C285.802551,458.938049 284.704651,459.934540 283.274048,460.908844 
z"/>
<path fill="#928B96" opacity="1.000000" stroke="none" 
	d="
M290.246582,465.896881 
	C290.453125,465.562164 290.966339,465.288269 291.778473,465.059021 
	C291.569366,465.388336 291.061279,465.673035 290.246582,465.896881 
z"/>
<path fill="#928B96" opacity="1.000000" stroke="none" 
	d="
M292.389893,465.115845 
	C292.501129,464.707977 292.925812,464.306732 293.665894,463.937500 
	C293.555298,464.353821 293.129303,464.738129 292.389893,465.115845 
z"/>
<path fill="#8F7D75" opacity="1.000000" stroke="none" 
	d="
M278.372894,464.070435 
	C278.506866,463.705963 278.941467,463.345551 279.674957,462.995728 
	C279.540405,463.362396 279.106995,463.718414 278.372894,464.070435 
z"/>
<path fill="#8F7D75" opacity="1.000000" stroke="none" 
	d="
M281.484619,462.117859 
	C281.561951,461.733276 281.929932,461.329010 282.596130,460.925964 
	C282.521332,461.317474 282.148285,461.707825 281.484619,462.117859 
z"/>
<path fill="#8F7D75" opacity="1.000000" stroke="none" 
	d="
M276.144745,464.916199 
	C276.107300,464.592682 276.373077,464.419128 276.941345,464.432922 
	C276.975983,464.782318 276.710693,464.930969 276.144745,464.916199 
z"/>
<path fill="#8F7D75" opacity="1.000000" stroke="none" 
	d="
M280.257446,462.955200 
	C280.208588,462.722687 280.402985,462.467987 280.848999,462.213318 
	C281.039398,462.568970 280.839417,462.808838 280.257446,462.955200 
z"/>
<path fill="#3E2E2B" opacity="1.000000" stroke="none" 
	d="
M414.351440,182.853180 
	C408.669525,180.101166 408.439209,173.610641 413.766876,170.586929 
	C416.014618,169.311234 418.707520,168.819901 421.569977,167.880951 
	C433.309143,166.226776 444.497192,166.678802 456.046295,170.950729 
	C462.183075,175.089737 467.635956,179.039764 473.088837,182.989777 
	C468.014679,181.683456 462.994598,180.088852 457.856140,179.125549 
	C443.173187,176.372971 428.773560,177.816574 414.351440,182.853180 
z"/>
<path fill="#3E2E2B" opacity="1.000000" stroke="none" 
	d="
M375.564270,168.846634 
	C379.546356,169.596909 383.244385,169.993286 386.542572,171.356796 
	C388.816315,172.296799 391.068726,174.258255 392.324188,176.363419 
	C393.218964,177.863800 392.440369,180.362137 392.408508,182.415115 
	C390.718903,182.363770 388.930603,182.656235 387.356079,182.204147 
	C378.490204,179.658585 369.721222,176.602753 360.000549,178.807617 
	C358.231232,178.397629 356.718414,177.717834 355.205597,177.038040 
	C356.109802,175.583786 356.897614,174.036407 357.959961,172.708664 
	C358.647522,171.849380 359.736511,171.311310 360.808350,170.335571 
	C365.683929,169.662964 370.396820,169.284103 375.564270,168.846634 
z"/>
<path fill="#E5BBA5" opacity="1.000000" stroke="none" 
	d="
M473.057129,182.996613 
	C467.635956,179.039764 462.183075,175.089737 456.422821,170.975708 
	C460.635071,170.199600 465.142883,169.403473 469.683136,169.110916 
	C470.754089,169.041901 472.622131,170.468506 472.937195,171.552002 
	C473.940002,175.001007 474.383545,178.612610 475.021362,182.580750 
	C474.999542,183.000107 475.010712,182.985336 475.010712,182.985336 
	C475.010712,182.985336 474.549225,183.002960 474.061340,182.903076 
	C473.392548,182.848404 473.211639,182.893616 473.030731,182.938843 
	C473.030731,182.938843 473.025391,183.003433 473.057129,182.996613 
z"/>
<path fill="#E5BBA5" opacity="1.000000" stroke="none" 
	d="
M474.992249,183.005951 
	C475.116486,183.146942 475.247986,183.282074 475.379486,183.417221 
	C475.294525,183.366669 475.209534,183.316101 475.067627,183.125443 
	C475.010712,182.985336 474.999542,183.000107 474.992249,183.005951 
z"/>
<path fill="#3E2E2B" opacity="1.000000" stroke="none" 
	d="
M472.933960,183.218506 
	C473.211639,182.893616 473.392548,182.848404 473.830688,182.914734 
	C473.671051,183.183563 473.254089,183.340866 472.933960,183.218506 
z"/>
<path fill="#403F44" opacity="1.000000" stroke="none" 
	d="
M276.306824,458.004089 
	C276.236023,457.740112 276.464386,457.418701 277.013977,457.039124 
	C277.092072,457.302826 276.849030,457.624725 276.306824,458.004089 
z"/>
<path fill="#FFFFFF" opacity="1.000000" stroke="none" 
	d="
M412.949158,199.158905 
	C418.986420,195.874115 425.083221,192.982300 431.546936,190.154648 
	C432.992950,192.077621 434.072021,193.936417 435.192963,196.295990 
	C435.234802,196.796768 435.030731,197.045685 434.644409,197.038269 
	C430.245544,198.578690 426.233032,200.126541 422.220490,201.674377 
	C422.341583,202.117584 422.462677,202.560776 422.583771,203.003983 
	C424.589539,202.902420 426.595276,202.800873 428.677032,202.695465 
	C428.820435,204.785583 428.966309,206.912292 429.039673,209.272369 
	C428.967102,209.505722 428.972046,209.994446 428.972046,209.994446 
	C425.868317,209.762527 422.563385,210.125198 419.708130,209.159027 
	C415.448730,207.717712 413.479980,203.992538 412.949158,199.158905 
z"/>
<path fill="#4F433E" opacity="1.000000" stroke="none" 
	d="
M435.030731,197.045685 
	C435.030731,197.045685 435.234802,196.796768 435.317932,196.658997 
	C441.485321,196.543579 447.569641,196.565948 453.653931,196.588303 
	C453.682068,197.226379 453.710205,197.864456 453.738342,198.502518 
	C450.626892,199.128464 447.515442,199.754410 444.026306,200.456329 
	C445.601685,204.804260 445.961639,208.935394 442.148865,212.668549 
	C442.000000,212.998154 442.010712,213.028412 442.010712,213.028412 
	C437.258240,214.939255 432.934662,214.888412 429.285950,210.154694 
	C428.972046,209.994446 428.967102,209.505722 429.327606,209.099503 
	C433.722931,205.844604 435.683502,202.044510 435.030731,197.045685 
z"/>
<path fill="#FFFFFF" opacity="1.000000" stroke="none" 
	d="
M442.014832,213.004883 
	C442.687592,212.951096 443.349274,212.813950 444.002808,212.845490 
	C445.506805,212.918091 447.006866,213.072723 448.508514,213.194092 
	C448.382538,214.407639 448.594116,216.469986 448.068573,216.679016 
	C446.345734,217.364273 444.354980,217.375900 442.467224,217.646469 
	C442.305634,216.349152 442.144043,215.051834 441.996582,213.391479 
	C442.010712,213.028412 442.000000,212.998154 442.014832,213.004883 
z"/>
<path fill="#4F433E" opacity="1.000000" stroke="none" 
	d="
M363.438599,197.931946 
	C363.108307,197.479095 363.137207,197.149811 363.220367,196.576096 
	C369.264069,193.969543 373.682953,196.677704 377.616058,200.898254 
	C379.070923,202.459457 380.507965,204.037262 382.251617,205.813385 
	C381.139160,205.934235 379.728180,205.849182 379.406952,205.829819 
	C376.755035,207.858276 374.676697,209.447983 372.598389,211.037689 
	C370.898468,208.464188 368.035645,205.992538 367.798981,203.290863 
	C367.515961,200.060089 365.743896,199.283859 363.438599,197.931946 
z"/>
<path fill="#8F7D75" opacity="1.000000" stroke="none" 
	d="
M355.917358,208.522736 
	C353.797272,207.645126 351.685638,206.384094 349.220947,205.055756 
	C348.668579,201.118347 348.469269,197.248215 348.611328,193.381073 
	C351.030182,197.445633 353.107666,201.507202 355.477234,205.708008 
	C355.821472,206.611267 355.873627,207.375290 355.917358,208.522736 
z"/>
<path fill="#8F7D75" opacity="1.000000" stroke="none" 
	d="
M434.644409,197.038269 
	C435.683502,202.044510 433.722931,205.844604 429.400146,208.866150 
	C428.966309,206.912292 428.820435,204.785583 428.677032,202.695465 
	C426.595276,202.800873 424.589539,202.902420 422.583771,203.003983 
	C422.462677,202.560776 422.341583,202.117584 422.220490,201.674377 
	C426.233032,200.126541 430.245544,198.578690 434.644409,197.038269 
z"/>
</svg>